<?xml version="1.0" encoding="UTF-8" standalone="no"?>
<svg width="2070px" height="1165px" viewBox="0 0 2070 1165" version="1.1" xmlns="http://www.w3.org/2000/svg" xmlns:xlink="http://www.w3.org/1999/xlink" xmlns:sketch="http://www.bohemiancoding.com/sketch/ns">
    <title>morpheus center nobg</title>
    <description>Created with Sketch (http://www.bohemiancoding.com/sketch)</description>
    <defs></defs>
    <g id="Page-1" stroke="none" stroke-width="1" fill="none" fill-rule="evenodd" sketch:type="MSPage">
        <g id="Dark-middle-copy" sketch:type="MSLayerGroup" transform="translate(648.000000, 359.000000)">
            <g id="Pills" transform="translate(173.000000, 0.000000)" sketch:type="MSShapeGroup">
                <path d="M253.641935,253.538471 C295.636657,257.948332 331.728296,254.327816 362.01033,239.84754 C397.21348,224.826397 423.682671,196.125701 427.277029,160.093402 C431.951833,113.216184 388.620413,74.0864524 315.80805,57.3110153 C318.967227,63.3038539 321.007337,69.7400444 321.72953,76.6065056 C327.611237,132.505164 259.013723,194.348787 173.552191,203.525941 C162.832741,204.599834 152.499065,205.165907 142.549594,205.176945 C169.749469,230.059337 209.434938,248.896304 253.641935,253.538471 Z" id="Oval-1-copy-3" fill="#5DD9F2"></path>
                <path d="M65.1916516,189.905817 C29.977678,174.779739 3.52108587,146.198797 -0.0490866323,110.396409 C-5.443991,56.2918563 53.3909467,12.5789091 147.769786,1.69573675 C212.318856,-5.99863903 293.064125,14.1667415 315.808037,57.3109956 C304.400374,54.6827702 292.269057,52.6032383 279.485338,51.1285922 C205.97126,42.361527 111.433106,69.8776827 105.497189,126.30337 C102.642172,153.442636 117.153715,181.944845 142.549594,205.176945 C113.501806,205.209171 87.7288463,200.51046 65.1916516,189.905817 Z" id="Oval-1-copy-2" fill-opacity="0.9" fill="#FF5533"></path>
                <path d="M173.552191,203.525941 C259.013723,194.348787 327.611237,132.505164 321.72953,76.6065056 C321.007336,69.7400372 318.967223,63.3038403 315.808037,57.3109956 C304.400374,54.6827702 292.269057,52.6032383 279.485338,51.1285922 C205.97126,42.361527 111.433106,69.8776827 105.497189,126.30337 C102.642172,153.442636 117.153715,181.944845 142.549594,205.176945 C152.499064,205.165907 162.832741,204.599834 173.552191,203.525941 Z" id="Oval-1-copy-4" fill-opacity="0.9" fill="#853261"></path>
            </g>
            <path d="M42.496,428.758 C40.2826556,420.78996 38.0140116,413.154037 35.69,405.85 C33.3659884,398.545963 31.1250108,391.657032 28.967,385.183 C26.8089892,378.708968 24.73401,372.816027 22.742,367.504 C20.74999,362.191973 18.9240083,357.54402 17.264,353.56 C16.8213311,359.868032 16.461668,366.812295 16.185,374.393 C15.9083319,381.973705 15.6316681,389.74796 15.355,397.716 C15.078332,405.68404 14.8570008,413.679627 14.691,421.703 C14.5249992,429.726373 14.3866672,437.389963 14.276,444.694 L0,444.694 C0.33200166,434.73395 0.66399834,424.691051 0.996,414.565 C1.32800166,404.438949 1.74299751,394.479049 2.241,384.685 C2.73900249,374.890951 3.29233029,365.346046 3.901,356.05 C4.50966971,346.753954 5.20132946,337.956041 5.976,329.656 L20.75,329.656 C22.74201,334.41469 25.0106539,340.0863 27.556,346.671 C30.1013461,353.2557 32.6743203,360.144631 35.275,367.338 C37.8756797,374.531369 40.3933212,381.724631 42.828,388.918 C45.2626788,396.111369 47.3653245,402.69597 49.136,408.672 C50.9066755,402.69597 52.9539884,396.111369 55.278,388.918 C57.6020116,381.724631 60.0366539,374.531369 62.582,367.338 C65.1273461,360.144631 67.6449875,353.2557 70.135,346.671 C72.6250124,340.0863 74.86599,334.41469 76.858,329.656 L91.632,329.656 C92.4066705,337.956041 93.0983303,346.753954 93.707,356.05 C94.3156697,365.346046 94.8689975,374.890951 95.367,384.685 C95.8650025,394.479049 96.2799983,404.438949 96.612,414.565 C96.9440017,424.691051 97.2759983,434.73395 97.608,444.694 L83.332,444.694 C83.1106656,437.389963 82.9170008,429.698707 82.751,421.62 C82.5849992,413.541293 82.3636681,405.435041 82.087,397.301 C81.8103319,389.166959 81.5060017,381.254372 81.174,373.563 C80.8419983,365.871628 80.4546689,358.816699 80.012,352.398 L76.277,362.773 C74.7829925,366.923021 73.2336747,371.432642 71.629,376.302 C70.0243253,381.171358 68.3643419,386.178974 66.649,391.325 C64.9336581,396.471026 63.3290075,401.42331 61.835,406.182 C60.3409925,410.94069 59.0130058,415.284314 57.851,419.213 C56.6889942,423.141686 55.7760033,426.323321 55.112,428.758 L42.496,428.758 Z M210.196,387.258 C210.196,396.222045 209.393675,404.38363 207.789,411.743 C206.184325,419.10237 203.69435,425.410307 200.319,430.667 C196.94365,435.923693 192.683026,439.990652 187.537,442.868 C182.390974,445.745348 176.332035,447.184 169.36,447.184 C162.387965,447.184 156.329026,445.745348 151.183,442.868 C146.036974,439.990652 141.77635,435.923693 138.401,430.667 C135.02565,425.410307 132.508008,419.10237 130.848,411.743 C129.187992,404.38363 128.358,396.222045 128.358,387.258 C128.358,378.293955 129.187992,370.104704 130.848,362.69 C132.508008,355.275296 135.02565,348.939693 138.401,343.683 C141.77635,338.426307 146.036974,334.331681 151.183,331.399 C156.329026,328.466319 162.387965,327 169.36,327 C176.332035,327 182.390974,328.466319 187.537,331.399 C192.683026,334.331681 196.94365,338.426307 200.319,343.683 C203.69435,348.939693 206.184325,355.275296 207.789,362.69 C209.393675,370.104704 210.196,378.293955 210.196,387.258 Z M194.26,387.258 C194.26,380.285965 193.817338,373.922695 192.932,368.168 C192.046662,362.413305 190.60801,357.461021 188.616,353.311 C186.62399,349.160979 184.051016,345.924012 180.897,343.6 C177.742984,341.275988 173.897356,340.114 169.36,340.114 C164.822644,340.114 160.977016,341.275988 157.823,343.6 C154.668984,345.924012 152.09601,349.160979 150.104,353.311 C148.11199,357.461021 146.645671,362.413305 145.705,368.168 C144.764329,373.922695 144.294,380.285965 144.294,387.258 C144.294,394.230035 144.764329,400.593305 145.705,406.348 C146.645671,412.102695 148.11199,417.027313 150.104,421.122 C152.09601,425.216687 154.668984,428.398322 157.823,430.667 C160.977016,432.935678 164.822644,434.07 169.36,434.07 C173.897356,434.07 177.742984,432.935678 180.897,430.667 C184.051016,428.398322 186.62399,425.216687 188.616,421.122 C190.60801,417.027313 192.046662,412.102695 192.932,406.348 C193.817338,400.593305 194.26,394.230035 194.26,387.258 Z M243.436,331.316 C251.182705,329.434657 258.652631,328.494 265.846,328.494 C271.600695,328.494 276.801977,329.157993 281.45,330.486 C286.098023,331.814007 290.081983,333.916652 293.402,336.794 C296.722017,339.671348 299.294991,343.378644 301.121,347.916 C302.947009,352.453356 303.86,357.931301 303.86,364.35 C303.86,372.31804 302.338349,378.764309 299.295,383.689 C296.251651,388.613691 292.129359,392.348654 286.928,394.894 C288.256007,397.107344 289.943656,400.122981 291.991,403.941 C294.038344,407.759019 296.140989,411.96431 298.299,416.557 C300.457011,421.14969 302.559656,425.880642 304.607,430.75 C306.654344,435.619358 308.397326,440.267311 309.836,444.694 L294.896,444.694 C293.678661,441.373983 292.157009,437.611354 290.331,433.406 C288.504991,429.200646 286.59601,425.023021 284.604,420.873 C282.61199,416.722979 280.62001,412.739019 278.628,408.921 C276.63599,405.102981 274.865341,401.866013 273.316,399.21 C271.545324,399.431334 269.719343,399.597333 267.838,399.708 C265.956657,399.818667 264.075343,399.874 262.194,399.874 L258.044,399.874 L258.044,444.694 L243.436,444.694 L243.436,331.316 Z M258.044,387.59 L264.352,387.59 C271.988038,387.59 277.853313,385.847017 281.948,382.361 C286.042687,378.874983 288.09,372.871376 288.09,364.35 C288.09,360.033978 287.564339,356.409681 286.513,353.477 C285.461661,350.544319 283.967676,348.220342 282.031,346.505 C280.094324,344.789658 277.770347,343.544671 275.059,342.77 C272.347653,341.995329 269.332017,341.608 266.012,341.608 C263.134652,341.608 260.478679,341.773998 258.044,342.106 L258.044,387.59 Z M338.76,331.316 C346.506705,329.434657 354.087296,328.494 361.502,328.494 C367.256695,328.494 372.485643,329.18566 377.189,330.569 C381.892357,331.95234 385.93165,334.110319 389.307,337.043 C392.68235,339.975681 395.282991,343.765977 397.109,348.414 C398.935009,353.062023 399.848,358.650634 399.848,365.18 C399.848,371.820033 398.907343,377.491643 397.026,382.195 C395.144657,386.898357 392.488684,390.716319 389.058,393.649 C385.627316,396.581681 381.505024,398.711993 376.691,400.04 C371.876976,401.368007 366.537363,402.032 360.672,402.032 L353.7,402.032 L353.7,444.694 L338.76,444.694 L338.76,331.316 Z M353.7,388.918 L359.676,388.918 C363.438685,388.918 366.841651,388.503004 369.885,387.673 C372.928349,386.842996 375.501323,385.487343 377.604,383.606 C379.706677,381.724657 381.311328,379.290015 382.418,376.302 C383.524672,373.313985 384.078,369.606689 384.078,365.18 C384.078,360.753311 383.524672,357.018349 382.418,353.975 C381.311328,350.931651 379.789676,348.497009 377.853,346.671 C375.916324,344.844991 373.564681,343.544671 370.798,342.77 C368.031319,341.995329 364.988017,341.608 361.668,341.608 C358.790652,341.608 356.134679,341.773998 353.7,342.106 L353.7,388.918 Z M482.058,329.656 L496.998,329.656 L496.998,444.694 L482.058,444.694 L482.058,391.242 L444.21,391.242 L444.21,444.694 L429.27,444.694 L429.27,329.656 L444.21,329.656 L444.21,378.294 L482.058,378.294 L482.058,329.656 Z M534.886,444.694 L534.886,329.656 L586.512,329.656 L586.512,342.438 L549.826,342.438 L549.826,378.128 L583.026,378.128 L583.026,390.578 L549.826,390.578 L549.826,431.912 L589.168,431.912 L589.168,444.694 L534.886,444.694 Z M651.79,447.184 C641.05528,447.184 633.00436,444.140697 627.637,438.054 C622.26964,431.967303 619.586,422.339399 619.586,409.17 L619.586,329.656 L634.526,329.656 L634.526,407.842 C634.526,416.58471 635.798654,423.141645 638.344,427.513 C640.889346,431.884355 645.481967,434.07 652.122,434.07 C658.983368,434.07 663.658988,431.829022 666.149,427.347 C668.639012,422.864978 669.884,416.363376 669.884,407.842 L669.884,329.656 L684.824,329.656 L684.824,409.17 C684.824,422.118065 682.057361,431.690636 676.524,437.888 C670.990639,444.085364 662.746055,447.184 651.79,447.184 Z M735.992,434.402 C741.96803,434.402 746.588317,432.742017 749.853,429.422 C753.117683,426.101983 754.75,421.620028 754.75,415.976 C754.75,412.987985 754.252005,410.332012 753.256,408.008 C752.259995,405.683988 750.959675,403.581343 749.355,401.7 C747.750325,399.818657 745.896677,398.103341 743.794,396.554 C741.691323,395.004659 739.533344,393.455341 737.32,391.906 C734.774654,390.135324 732.118681,388.25401 729.352,386.262 C726.58532,384.26999 724.067678,381.946013 721.799,379.29 C719.530322,376.633987 717.676674,373.535351 716.238,369.994 C714.799326,366.452649 714.08,362.30269 714.08,357.544 C714.08,352.895977 714.882325,348.690685 716.487,344.928 C718.091675,341.165315 720.304986,337.956013 723.127,335.3 C725.949014,332.643987 729.324314,330.596674 733.253,329.158 C737.181686,327.719326 741.414644,327 745.952,327 C750.378689,327 754.473315,327.553328 758.236,328.66 C761.998685,329.766672 765.152654,331.094659 767.698,332.644 L763.05,344.43 C760.725988,342.880659 758.208347,341.691004 755.497,340.861 C752.785653,340.030996 749.936015,339.616 746.948,339.616 C741.525306,339.616 737.181683,341.082319 733.917,344.015 C730.652317,346.947681 729.02,351.235972 729.02,356.88 C729.02,359.978682 729.545661,362.689988 730.597,365.014 C731.648339,367.338012 733.031658,369.440657 734.747,371.322 C736.462342,373.203343 738.454322,374.918659 740.723,376.468 C742.991678,378.017341 745.398654,379.621992 747.944,381.282 C750.489346,382.942008 753.089987,384.76799 755.746,386.76 C758.402013,388.75201 760.808989,391.04832 762.967,393.649 C765.125011,396.24968 766.89566,399.292983 768.279,402.779 C769.66234,406.265017 770.354,410.38731 770.354,415.146 C770.354,419.462022 769.690007,423.556647 768.362,427.43 C767.033993,431.303353 764.959014,434.706319 762.137,437.639 C759.314986,440.571681 755.773688,442.895658 751.513,444.611 C747.252312,446.326342 742.244695,447.184 736.49,447.184 C731.177973,447.184 726.53002,446.575339 722.546,445.358 C718.56198,444.140661 715.020682,442.53601 711.922,440.544 L716.57,428.592 C719.447348,430.362676 722.407651,431.773661 725.451,432.825 C728.494349,433.876339 732.00798,434.402 735.992,434.402 Z" id="MORPHEUS" fill="#434343" sketch:type="MSShapeGroup"></path>
        </g>
    </g>
</svg>