<?xml version="1.0" encoding="UTF-8" standalone="no"?>
<svg width="2070px" height="1165px" viewBox="0 0 2070 1165" version="1.1" xmlns="http://www.w3.org/2000/svg" xmlns:xlink="http://www.w3.org/1999/xlink" xmlns:sketch="http://www.bohemiancoding.com/sketch/ns">
    <title>morpheus wide nobg</title>
    <description>Created with Sketch (http://www.bohemiancoding.com/sketch)</description>
    <defs></defs>
    <g id="Page-1" stroke="none" stroke-width="1" fill="none" fill-rule="evenodd" sketch:type="MSPage">
        <g id="Light-long-copy" sketch:type="MSLayerGroup" transform="translate(446.000000, 485.000000)">
            <g id="Pills" sketch:type="MSShapeGroup">
                <path d="M194.972422,194.876629 C227.253412,198.266169 254.996751,195.483341 278.274295,184.353403 C305.334661,172.807741 325.681305,150.747598 328.444259,123.052184 C332.037741,87.0210667 298.729243,56.9448811 242.758991,44.0508196 C245.187425,48.6570799 246.75564,53.6041126 247.310783,58.8818631 C251.832003,101.847107 199.10167,149.381812 133.408109,156.435625 C125.168158,157.261049 117.224749,157.696148 109.576674,157.704633 C130.484989,176.829922 160.990875,191.308532 194.972422,194.876629 Z" id="Oval-1-copy-3" fill="#5DD9F2"></path>
                <path d="M50.1122743,145.966824 C23.0435889,134.340505 2.70662909,112.372409 -0.0377324814,84.8537104 C-4.18475009,43.2674661 41.0411716,9.66849485 113.589392,1.30338982 C163.207718,-4.61071862 225.275928,10.8889464 242.758981,44.0508044 C233.990007,42.0306783 224.664766,40.4322929 214.838029,39.2988395 C158.328375,32.5602325 85.6576913,53.7099052 81.0948019,97.0802375 C78.9001741,117.940222 90.0550751,139.847802 109.576674,157.704633 C87.2478833,157.729402 67.4364262,154.117844 50.1122743,145.966824 Z" id="Oval-1-copy-2" fill-opacity="0.9" fill="#FF5533"></path>
                <path d="M133.408109,156.435625 C199.10167,149.381812 251.832003,101.847107 247.310783,58.8818631 C246.755639,53.604107 245.187421,48.6570694 242.758981,44.0508044 C233.990007,42.0306783 224.664766,40.4322929 214.838029,39.2988395 C158.328375,32.5602325 85.6576913,53.7099052 81.0948019,97.0802375 C78.9001741,117.940222 90.0550751,139.847802 109.576674,157.704633 C117.224748,157.696148 125.168158,157.261049 133.408109,156.435625 Z" id="Oval-1-copy-4" fill-opacity="0.9" fill="#853261"></path>
            </g>
            <path d="M447.137,140.064 C444.923656,132.09596 442.655012,124.460037 440.331,117.156 C438.006988,109.851963 435.766011,102.963032 433.608,96.489 C431.449989,90.0149676 429.37501,84.1220266 427.383,78.81 C425.39099,73.4979734 423.565008,68.8500199 421.905,64.866 C421.462331,71.1740315 421.102668,78.1182954 420.826,85.699 C420.549332,93.2797046 420.272668,101.05396 419.996,109.022 C419.719332,116.99004 419.498001,124.985627 419.332,133.009 C419.165999,141.032373 419.027667,148.695963 418.917,156 L404.641,156 C404.973002,146.03995 405.304998,135.997051 405.637,125.871 C405.969002,115.744949 406.383998,105.785049 406.882,95.991 C407.380002,86.196951 407.93333,76.6520465 408.542,67.356 C409.15067,58.0599535 409.842329,49.2620415 410.617,40.962 L425.391,40.962 C427.38301,45.7206905 429.651654,51.3923004 432.197,57.977 C434.742346,64.5616996 437.31532,71.4506307 439.916,78.644 C442.51668,85.8373693 445.034321,93.0306307 447.469,100.224 C449.903679,107.417369 452.006324,114.00197 453.777,119.978 C455.547676,114.00197 457.594988,107.417369 459.919,100.224 C462.243012,93.0306307 464.677654,85.8373693 467.223,78.644 C469.768346,71.4506307 472.285988,64.5616996 474.776,57.977 C477.266012,51.3923004 479.50699,45.7206905 481.499,40.962 L496.273,40.962 C497.047671,49.2620415 497.73933,58.0599535 498.348,67.356 C498.95667,76.6520465 499.509998,86.196951 500.008,95.991 C500.506002,105.785049 500.920998,115.744949 501.253,125.871 C501.585002,135.997051 501.916998,146.03995 502.249,156 L487.973,156 C487.751666,148.695963 487.558001,141.004707 487.392,132.926 C487.225999,124.847293 487.004668,116.741041 486.728,108.607 C486.451332,100.472959 486.147002,92.5603718 485.815,84.869 C485.482998,77.1776282 485.095669,70.1226988 484.653,63.704 L480.918,74.079 C479.423993,78.2290208 477.874675,82.7386423 476.27,87.608 C474.665325,92.4773577 473.005342,97.4849743 471.29,102.631 C469.574658,107.777026 467.970007,112.72931 466.476,117.488 C464.981993,122.24669 463.654006,126.590314 462.492,130.519 C461.329994,134.447686 460.417003,137.629321 459.753,140.064 L447.137,140.064 Z M614.837,98.564 C614.837,107.528045 614.034675,115.68963 612.43,123.049 C610.825325,130.40837 608.33535,136.716307 604.96,141.973 C601.58465,147.229693 597.324026,151.296652 592.178,154.174 C587.031974,157.051348 580.973035,158.49 574.001,158.49 C567.028965,158.49 560.970026,157.051348 555.824,154.174 C550.677974,151.296652 546.41735,147.229693 543.042,141.973 C539.66665,136.716307 537.149008,130.40837 535.489,123.049 C533.828992,115.68963 532.999,107.528045 532.999,98.564 C532.999,89.5999552 533.828992,81.4107037 535.489,73.996 C537.149008,66.5812963 539.66665,60.245693 543.042,54.989 C546.41735,49.7323071 550.677974,45.6376813 555.824,42.705 C560.970026,39.7723187 567.028965,38.306 574.001,38.306 C580.973035,38.306 587.031974,39.7723187 592.178,42.705 C597.324026,45.6376813 601.58465,49.7323071 604.96,54.989 C608.33535,60.245693 610.825325,66.5812963 612.43,73.996 C614.034675,81.4107037 614.837,89.5999552 614.837,98.564 Z M598.901,98.564 C598.901,91.5919651 598.458338,85.2286954 597.573,79.474 C596.687662,73.7193046 595.24901,68.7670208 593.257,64.617 C591.26499,60.4669793 588.692016,57.2300116 585.538,54.906 C582.383984,52.5819884 578.538356,51.42 574.001,51.42 C569.463644,51.42 565.618016,52.5819884 562.464,54.906 C559.309984,57.2300116 556.73701,60.4669793 554.745,64.617 C552.75299,68.7670208 551.286671,73.7193046 550.346,79.474 C549.405329,85.2286954 548.935,91.5919651 548.935,98.564 C548.935,105.536035 549.405329,111.899305 550.346,117.654 C551.286671,123.408695 552.75299,128.333313 554.745,132.428 C556.73701,136.522687 559.309984,139.704322 562.464,141.973 C565.618016,144.241678 569.463644,145.376 574.001,145.376 C578.538356,145.376 582.383984,144.241678 585.538,141.973 C588.692016,139.704322 591.26499,136.522687 593.257,132.428 C595.24901,128.333313 596.687662,123.408695 597.573,117.654 C598.458338,111.899305 598.901,105.536035 598.901,98.564 Z M648.077,42.622 C655.823705,40.7406573 663.293631,39.8 670.487,39.8 C676.241695,39.8 681.442977,40.4639934 686.091,41.792 C690.739023,43.1200066 694.722983,45.2226523 698.043,48.1 C701.363017,50.9773477 703.935991,54.684644 705.762,59.222 C707.588009,63.759356 708.501,69.2373012 708.501,75.656 C708.501,83.6240398 706.979349,90.0703087 703.936,94.995 C700.892651,99.9196913 696.770359,103.654654 691.569,106.2 C692.897007,108.413344 694.584656,111.428981 696.632,115.247 C698.679344,119.065019 700.781989,123.27031 702.94,127.863 C705.098011,132.45569 707.200656,137.186642 709.248,142.056 C711.295344,146.925358 713.038326,151.573311 714.477,156 L699.537,156 C698.319661,152.679983 696.798009,148.917354 694.972,144.712 C693.145991,140.506646 691.23701,136.329021 689.245,132.179 C687.25299,128.028979 685.26101,124.045019 683.269,120.227 C681.27699,116.408981 679.506341,113.172013 677.957,110.516 C676.186324,110.737334 674.360343,110.903333 672.479,111.014 C670.597657,111.124667 668.716343,111.18 666.835,111.18 L662.685,111.18 L662.685,156 L648.077,156 L648.077,42.622 Z M662.685,98.896 L668.993,98.896 C676.629038,98.896 682.494313,97.1530174 686.589,93.667 C690.683687,90.1809826 692.731,84.1773759 692.731,75.656 C692.731,71.3399784 692.205339,67.7156813 691.154,64.783 C690.102661,61.8503187 688.608676,59.5263419 686.672,57.811 C684.735324,56.0956581 682.411347,54.8506705 679.7,54.076 C676.988653,53.3013295 673.973017,52.914 670.653,52.914 C667.775652,52.914 665.119679,53.0799983 662.685,53.412 L662.685,98.896 Z M743.401,42.622 C751.147705,40.7406573 758.728296,39.8 766.143,39.8 C771.897695,39.8 777.126643,40.4916598 781.83,41.875 C786.533357,43.2583403 790.57265,45.4163187 793.948,48.349 C797.32335,51.2816813 799.923991,55.0719768 801.75,59.72 C803.576009,64.3680232 804.489,69.956634 804.489,76.486 C804.489,83.1260332 803.548343,88.7976432 801.667,93.501 C799.785657,98.2043569 797.129684,102.022319 793.699,104.955 C790.268316,107.887681 786.146024,110.017993 781.332,111.346 C776.517976,112.674007 771.178363,113.338 765.313,113.338 L758.341,113.338 L758.341,156 L743.401,156 L743.401,42.622 Z M758.341,100.224 L764.317,100.224 C768.079685,100.224 771.482651,99.8090042 774.526,98.979 C777.569349,98.1489959 780.142323,96.7933427 782.245,94.912 C784.347677,93.0306573 785.952328,90.5960149 787.059,87.608 C788.165672,84.6199851 788.719,80.9126888 788.719,76.486 C788.719,72.0593112 788.165672,68.3243486 787.059,65.281 C785.952328,62.2376515 784.430676,59.8030091 782.494,57.977 C780.557324,56.1509909 778.20568,54.8506705 775.439,54.076 C772.672319,53.3013295 769.629017,52.914 766.309,52.914 C763.431652,52.914 760.775679,53.0799983 758.341,53.412 L758.341,100.224 Z M886.699,40.962 L901.639,40.962 L901.639,156 L886.699,156 L886.699,102.548 L848.851,102.548 L848.851,156 L833.911,156 L833.911,40.962 L848.851,40.962 L848.851,89.6 L886.699,89.6 L886.699,40.962 Z M939.527,156 L939.527,40.962 L991.153,40.962 L991.153,53.744 L954.467,53.744 L954.467,89.434 L987.667,89.434 L987.667,101.884 L954.467,101.884 L954.467,143.218 L993.809,143.218 L993.809,156 L939.527,156 Z M1056.431,158.49 C1045.69628,158.49 1037.64536,155.446697 1032.278,149.36 C1026.91064,143.273303 1024.227,133.645399 1024.227,120.476 L1024.227,40.962 L1039.167,40.962 L1039.167,119.148 C1039.167,127.89071 1040.43965,134.447645 1042.985,138.819 C1045.53035,143.190355 1050.12297,145.376 1056.763,145.376 C1063.62437,145.376 1068.29999,143.135022 1070.79,138.653 C1073.28001,134.170978 1074.525,127.669376 1074.525,119.148 L1074.525,40.962 L1089.465,40.962 L1089.465,120.476 C1089.465,133.424065 1086.69836,142.996636 1081.165,149.194 C1075.63164,155.391364 1067.38705,158.49 1056.431,158.49 Z M1140.633,145.708 C1146.60903,145.708 1151.22932,144.048017 1154.494,140.728 C1157.75868,137.407983 1159.391,132.926028 1159.391,127.282 C1159.391,124.293985 1158.893,121.638012 1157.897,119.314 C1156.901,116.989988 1155.60067,114.887343 1153.996,113.006 C1152.39133,111.124657 1150.53768,109.409341 1148.435,107.86 C1146.33232,106.310659 1144.17434,104.761341 1141.961,103.212 C1139.41565,101.441324 1136.75968,99.56001 1133.993,97.568 C1131.22632,95.57599 1128.70868,93.2520133 1126.44,90.596 C1124.17132,87.9399867 1122.31767,84.841351 1120.879,81.3 C1119.44033,77.758649 1118.721,73.6086905 1118.721,68.85 C1118.721,64.2019768 1119.52333,59.9966855 1121.128,56.234 C1122.73267,52.4713145 1124.94599,49.2620133 1127.768,46.606 C1130.59001,43.9499867 1133.96531,41.9026739 1137.894,40.464 C1141.82269,39.0253261 1146.05564,38.306 1150.593,38.306 C1155.01969,38.306 1159.11431,38.8593278 1162.877,39.966 C1166.63969,41.0726722 1169.79365,42.4006589 1172.339,43.95 L1167.691,55.736 C1165.36699,54.1866589 1162.84935,52.9970042 1160.138,52.167 C1157.42665,51.3369959 1154.57701,50.922 1151.589,50.922 C1146.16631,50.922 1141.82268,52.3883187 1138.558,55.321 C1135.29332,58.2536813 1133.661,62.5419718 1133.661,68.186 C1133.661,71.2846822 1134.18666,73.9959884 1135.238,76.32 C1136.28934,78.6440116 1137.67266,80.7466573 1139.388,82.628 C1141.10334,84.5093427 1143.09532,86.2246589 1145.364,87.774 C1147.63268,89.3233411 1150.03965,90.9279917 1152.585,92.588 C1155.13035,94.2480083 1157.73099,96.07399 1160.387,98.066 C1163.04301,100.05801 1165.44999,102.35432 1167.608,104.955 C1169.76601,107.55568 1171.53666,110.598983 1172.92,114.085 C1174.30334,117.571017 1174.995,121.69331 1174.995,126.452 C1174.995,130.768022 1174.33101,134.862647 1173.003,138.736 C1171.67499,142.609353 1169.60001,146.012319 1166.778,148.945 C1163.95599,151.877681 1160.41469,154.201658 1156.154,155.917 C1151.89331,157.632342 1146.8857,158.49 1141.131,158.49 C1135.81897,158.49 1131.17102,157.881339 1127.187,156.664 C1123.20298,155.446661 1119.66168,153.84201 1116.563,151.85 L1121.211,139.898 C1124.08835,141.668676 1127.04865,143.079661 1130.092,144.131 C1133.13535,145.182339 1136.64898,145.708 1140.633,145.708 Z" id="MORPHEUS-copy" fill="#434343" sketch:type="MSShapeGroup"></path>
        </g>
    </g>
</svg>