<?xml version="1.0" encoding="UTF-8" standalone="no"?>
<svg width="2070px" height="1163px" viewBox="0 0 2070 1163" version="1.1" xmlns="http://www.w3.org/2000/svg" xmlns:xlink="http://www.w3.org/1999/xlink" xmlns:sketch="http://www.bohemiancoding.com/sketch/ns">
    <title>morpheus wide dark</title>
    <description>Created with Sketch (http://www.bohemiancoding.com/sketch)</description>
    <defs></defs>
    <g id="Page-1" stroke="none" stroke-width="1" fill="none" fill-rule="evenodd" sketch:type="MSPage">
        <g id="Dark-long" sketch:type="MSLayerGroup">
            <rect id="Rectangle-1-copy" fill="#434343" sketch:type="MSShapeGroup" x="0" y="0" width="2070" height="1165"></rect>
            <g id="Pills" transform="translate(446.000000, 485.000000)" sketch:type="MSShapeGroup">
                <path d="M194.972422,194.876629 C227.253412,198.266169 254.996751,195.483341 278.274295,184.353403 C305.334661,172.807741 325.681305,150.747598 328.444259,123.052184 C332.037741,87.0210667 298.729243,56.9448811 242.758991,44.0508196 C245.187425,48.6570799 246.75564,53.6041126 247.310783,58.8818631 C251.832003,101.847107 199.10167,149.381812 133.408109,156.435625 C125.168158,157.261049 117.224749,157.696148 109.576674,157.704633 C130.484989,176.829922 160.990875,191.308532 194.972422,194.876629 Z" id="Oval-1-copy-3" fill="#5DD9F2"></path>
                <path d="M50.1122743,145.966824 C23.0435889,134.340505 2.70662909,112.372409 -0.0377324814,84.8537104 C-4.18475009,43.2674661 41.0411716,9.66849485 113.589392,1.30338982 C163.207718,-4.61071862 225.275928,10.8889464 242.758981,44.0508044 C233.990007,42.0306783 224.664766,40.4322929 214.838029,39.2988395 C158.328375,32.5602325 85.6576913,53.7099052 81.0948019,97.0802375 C78.9001741,117.940222 90.0550751,139.847802 109.576674,157.704633 C87.2478833,157.729402 67.4364262,154.117844 50.1122743,145.966824 Z" id="Oval-1-copy-2" fill-opacity="0.9" fill="#FF5533"></path>
                <path d="M133.408109,156.435625 C199.10167,149.381812 251.832003,101.847107 247.310783,58.8818631 C246.755639,53.604107 245.187421,48.6570694 242.758981,44.0508044 C233.990007,42.0306783 224.664766,40.4322929 214.838029,39.2988395 C158.328375,32.5602325 85.6576913,53.7099052 81.0948019,97.0802375 C78.9001741,117.940222 90.0550751,139.847802 109.576674,157.704633 C117.224748,157.696148 125.168158,157.261049 133.408109,156.435625 Z" id="Oval-1-copy-4" fill-opacity="0.9" fill="#853261"></path>
            </g>
            <path d="M893.137,625.064 C890.923656,617.09596 888.655012,609.460037 886.331,602.156 C884.006988,594.851963 881.766011,587.963032 879.608,581.489 C877.449989,575.014968 875.37501,569.122027 873.383,563.81 C871.39099,558.497973 869.565008,553.85002 867.905,549.866 C867.462331,556.174032 867.102668,563.118295 866.826,570.699 C866.549332,578.279705 866.272668,586.05396 865.996,594.022 C865.719332,601.99004 865.498001,609.985627 865.332,618.009 C865.165999,626.032373 865.027667,633.695963 864.917,641 L850.641,641 C850.973002,631.03995 851.304998,620.997051 851.637,610.871 C851.969002,600.744949 852.383998,590.785049 852.882,580.991 C853.380002,571.196951 853.93333,561.652046 854.542,552.356 C855.15067,543.059954 855.842329,534.262042 856.617,525.962 L871.391,525.962 C873.38301,530.72069 875.651654,536.3923 878.197,542.977 C880.742346,549.5617 883.31532,556.450631 885.916,563.644 C888.51668,570.837369 891.034321,578.030631 893.469,585.224 C895.903679,592.417369 898.006324,599.00197 899.777,604.978 C901.547676,599.00197 903.594988,592.417369 905.919,585.224 C908.243012,578.030631 910.677654,570.837369 913.223,563.644 C915.768346,556.450631 918.285988,549.5617 920.776,542.977 C923.266012,536.3923 925.50699,530.72069 927.499,525.962 L942.273,525.962 C943.047671,534.262042 943.73933,543.059954 944.348,552.356 C944.95667,561.652046 945.509998,571.196951 946.008,580.991 C946.506002,590.785049 946.920998,600.744949 947.253,610.871 C947.585002,620.997051 947.916998,631.03995 948.249,641 L933.973,641 C933.751666,633.695963 933.558001,626.004707 933.392,617.926 C933.225999,609.847293 933.004668,601.741041 932.728,593.607 C932.451332,585.472959 932.147002,577.560372 931.815,569.869 C931.482998,562.177628 931.095669,555.122699 930.653,548.704 L926.918,559.079 C925.423993,563.229021 923.874675,567.738642 922.27,572.608 C920.665325,577.477358 919.005342,582.484974 917.29,587.631 C915.574658,592.777026 913.970007,597.72931 912.476,602.488 C910.981993,607.24669 909.654006,611.590314 908.492,615.519 C907.329994,619.447686 906.417003,622.629321 905.753,625.064 L893.137,625.064 Z M1060.837,583.564 C1060.837,592.528045 1060.03467,600.68963 1058.43,608.049 C1056.82533,615.40837 1054.33535,621.716307 1050.96,626.973 C1047.58465,632.229693 1043.32403,636.296652 1038.178,639.174 C1033.03197,642.051348 1026.97303,643.49 1020.001,643.49 C1013.02897,643.49 1006.97003,642.051348 1001.824,639.174 C996.677974,636.296652 992.41735,632.229693 989.042,626.973 C985.66665,621.716307 983.149008,615.40837 981.489,608.049 C979.828992,600.68963 978.999,592.528045 978.999,583.564 C978.999,574.599955 979.828992,566.410704 981.489,558.996 C983.149008,551.581296 985.66665,545.245693 989.042,539.989 C992.41735,534.732307 996.677974,530.637681 1001.824,527.705 C1006.97003,524.772319 1013.02897,523.306 1020.001,523.306 C1026.97303,523.306 1033.03197,524.772319 1038.178,527.705 C1043.32403,530.637681 1047.58465,534.732307 1050.96,539.989 C1054.33535,545.245693 1056.82533,551.581296 1058.43,558.996 C1060.03467,566.410704 1060.837,574.599955 1060.837,583.564 Z M1044.901,583.564 C1044.901,576.591965 1044.45834,570.228695 1043.573,564.474 C1042.68766,558.719305 1041.24901,553.767021 1039.257,549.617 C1037.26499,545.466979 1034.69202,542.230012 1031.538,539.906 C1028.38398,537.581988 1024.53836,536.42 1020.001,536.42 C1015.46364,536.42 1011.61802,537.581988 1008.464,539.906 C1005.30998,542.230012 1002.73701,545.466979 1000.745,549.617 C998.75299,553.767021 997.286671,558.719305 996.346,564.474 C995.405329,570.228695 994.935,576.591965 994.935,583.564 C994.935,590.536035 995.405329,596.899305 996.346,602.654 C997.286671,608.408695 998.75299,613.333313 1000.745,617.428 C1002.73701,621.522687 1005.30998,624.704322 1008.464,626.973 C1011.61802,629.241678 1015.46364,630.376 1020.001,630.376 C1024.53836,630.376 1028.38398,629.241678 1031.538,626.973 C1034.69202,624.704322 1037.26499,621.522687 1039.257,617.428 C1041.24901,613.333313 1042.68766,608.408695 1043.573,602.654 C1044.45834,596.899305 1044.901,590.536035 1044.901,583.564 Z M1094.077,527.622 C1101.82371,525.740657 1109.29363,524.8 1116.487,524.8 C1122.2417,524.8 1127.44298,525.463993 1132.091,526.792 C1136.73902,528.120007 1140.72298,530.222652 1144.043,533.1 C1147.36302,535.977348 1149.93599,539.684644 1151.762,544.222 C1153.58801,548.759356 1154.501,554.237301 1154.501,560.656 C1154.501,568.62404 1152.97935,575.070309 1149.936,579.995 C1146.89265,584.919691 1142.77036,588.654654 1137.569,591.2 C1138.89701,593.413344 1140.58466,596.428981 1142.632,600.247 C1144.67934,604.065019 1146.78199,608.27031 1148.94,612.863 C1151.09801,617.45569 1153.20066,622.186642 1155.248,627.056 C1157.29534,631.925358 1159.03833,636.573311 1160.477,641 L1145.537,641 C1144.31966,637.679983 1142.79801,633.917354 1140.972,629.712 C1139.14599,625.506646 1137.23701,621.329021 1135.245,617.179 C1133.25299,613.028979 1131.26101,609.045019 1129.269,605.227 C1127.27699,601.408981 1125.50634,598.172013 1123.957,595.516 C1122.18632,595.737334 1120.36034,595.903333 1118.479,596.014 C1116.59766,596.124667 1114.71634,596.18 1112.835,596.18 L1108.685,596.18 L1108.685,641 L1094.077,641 L1094.077,527.622 Z M1108.685,583.896 L1114.993,583.896 C1122.62904,583.896 1128.49431,582.153017 1132.589,578.667 C1136.68369,575.180983 1138.731,569.177376 1138.731,560.656 C1138.731,556.339978 1138.20534,552.715681 1137.154,549.783 C1136.10266,546.850319 1134.60868,544.526342 1132.672,542.811 C1130.73532,541.095658 1128.41135,539.850671 1125.7,539.076 C1122.98865,538.301329 1119.97302,537.914 1116.653,537.914 C1113.77565,537.914 1111.11968,538.079998 1108.685,538.412 L1108.685,583.896 Z M1189.401,527.622 C1197.14771,525.740657 1204.7283,524.8 1212.143,524.8 C1217.8977,524.8 1223.12664,525.49166 1227.83,526.875 C1232.53336,528.25834 1236.57265,530.416319 1239.948,533.349 C1243.32335,536.281681 1245.92399,540.071977 1247.75,544.72 C1249.57601,549.368023 1250.489,554.956634 1250.489,561.486 C1250.489,568.126033 1249.54834,573.797643 1247.667,578.501 C1245.78566,583.204357 1243.12968,587.022319 1239.699,589.955 C1236.26832,592.887681 1232.14602,595.017993 1227.332,596.346 C1222.51798,597.674007 1217.17836,598.338 1211.313,598.338 L1204.341,598.338 L1204.341,641 L1189.401,641 L1189.401,527.622 Z M1204.341,585.224 L1210.317,585.224 C1214.07969,585.224 1217.48265,584.809004 1220.526,583.979 C1223.56935,583.148996 1226.14232,581.793343 1228.245,579.912 C1230.34768,578.030657 1231.95233,575.596015 1233.059,572.608 C1234.16567,569.619985 1234.719,565.912689 1234.719,561.486 C1234.719,557.059311 1234.16567,553.324349 1233.059,550.281 C1231.95233,547.237651 1230.43068,544.803009 1228.494,542.977 C1226.55732,541.150991 1224.20568,539.850671 1221.439,539.076 C1218.67232,538.301329 1215.62902,537.914 1212.309,537.914 C1209.43165,537.914 1206.77568,538.079998 1204.341,538.412 L1204.341,585.224 Z M1332.699,525.962 L1347.639,525.962 L1347.639,641 L1332.699,641 L1332.699,587.548 L1294.851,587.548 L1294.851,641 L1279.911,641 L1279.911,525.962 L1294.851,525.962 L1294.851,574.6 L1332.699,574.6 L1332.699,525.962 Z M1385.527,641 L1385.527,525.962 L1437.153,525.962 L1437.153,538.744 L1400.467,538.744 L1400.467,574.434 L1433.667,574.434 L1433.667,586.884 L1400.467,586.884 L1400.467,628.218 L1439.809,628.218 L1439.809,641 L1385.527,641 Z M1502.431,643.49 C1491.69628,643.49 1483.64536,640.446697 1478.278,634.36 C1472.91064,628.273303 1470.227,618.645399 1470.227,605.476 L1470.227,525.962 L1485.167,525.962 L1485.167,604.148 C1485.167,612.89071 1486.43965,619.447645 1488.985,623.819 C1491.53035,628.190355 1496.12297,630.376 1502.763,630.376 C1509.62437,630.376 1514.29999,628.135022 1516.79,623.653 C1519.28001,619.170978 1520.525,612.669376 1520.525,604.148 L1520.525,525.962 L1535.465,525.962 L1535.465,605.476 C1535.465,618.424065 1532.69836,627.996636 1527.165,634.194 C1521.63164,640.391364 1513.38705,643.49 1502.431,643.49 Z M1586.633,630.708 C1592.60903,630.708 1597.22932,629.048017 1600.494,625.728 C1603.75868,622.407983 1605.391,617.926028 1605.391,612.282 C1605.391,609.293985 1604.893,606.638012 1603.897,604.314 C1602.901,601.989988 1601.60067,599.887343 1599.996,598.006 C1598.39133,596.124657 1596.53768,594.409341 1594.435,592.86 C1592.33232,591.310659 1590.17434,589.761341 1587.961,588.212 C1585.41565,586.441324 1582.75968,584.56001 1579.993,582.568 C1577.22632,580.57599 1574.70868,578.252013 1572.44,575.596 C1570.17132,572.939987 1568.31767,569.841351 1566.879,566.3 C1565.44033,562.758649 1564.721,558.60869 1564.721,553.85 C1564.721,549.201977 1565.52333,544.996685 1567.128,541.234 C1568.73267,537.471315 1570.94599,534.262013 1573.768,531.606 C1576.59001,528.949987 1579.96531,526.902674 1583.894,525.464 C1587.82269,524.025326 1592.05564,523.306 1596.593,523.306 C1601.01969,523.306 1605.11431,523.859328 1608.877,524.966 C1612.63969,526.072672 1615.79365,527.400659 1618.339,528.95 L1613.691,540.736 C1611.36699,539.186659 1608.84935,537.997004 1606.138,537.167 C1603.42665,536.336996 1600.57701,535.922 1597.589,535.922 C1592.16631,535.922 1587.82268,537.388319 1584.558,540.321 C1581.29332,543.253681 1579.661,547.541972 1579.661,553.186 C1579.661,556.284682 1580.18666,558.995988 1581.238,561.32 C1582.28934,563.644012 1583.67266,565.746657 1585.388,567.628 C1587.10334,569.509343 1589.09532,571.224659 1591.364,572.774 C1593.63268,574.323341 1596.03965,575.927992 1598.585,577.588 C1601.13035,579.248008 1603.73099,581.07399 1606.387,583.066 C1609.04301,585.05801 1611.44999,587.35432 1613.608,589.955 C1615.76601,592.55568 1617.53666,595.598983 1618.92,599.085 C1620.30334,602.571017 1620.995,606.69331 1620.995,611.452 C1620.995,615.768022 1620.33101,619.862647 1619.003,623.736 C1617.67499,627.609353 1615.60001,631.012319 1612.778,633.945 C1609.95599,636.877681 1606.41469,639.201658 1602.154,640.917 C1597.89331,642.632342 1592.8857,643.49 1587.131,643.49 C1581.81897,643.49 1577.17102,642.881339 1573.187,641.664 C1569.20298,640.446661 1565.66168,638.84201 1562.563,636.85 L1567.211,624.898 C1570.08835,626.668676 1573.04865,628.079661 1576.092,629.131 C1579.13535,630.182339 1582.64898,630.708 1586.633,630.708 Z" id="MORPHEUS-copy" fill="#FCFCF5" sketch:type="MSShapeGroup"></path>
        </g>
    </g>
</svg>