<?xml version="1.0" encoding="UTF-8" standalone="no"?>
<svg width="2070px" height="1163px" viewBox="0 0 2070 1163" version="1.1" xmlns="http://www.w3.org/2000/svg" xmlns:xlink="http://www.w3.org/1999/xlink" xmlns:sketch="http://www.bohemiancoding.com/sketch/ns">
    <title>morpheus center light</title>
    <description>Created with Sketch (http://www.bohemiancoding.com/sketch)</description>
    <defs></defs>
    <g id="Page-1" stroke="none" stroke-width="1" fill="none" fill-rule="evenodd" sketch:type="MSPage">
        <g id="Light-middle" sketch:type="MSLayerGroup">
            <rect id="Rectangle-1-copy" fill="#FDFCF5" sketch:type="MSShapeGroup" x="0" y="0" width="2070" height="1165"></rect>
            <g id="Pills" transform="translate(821.000000, 359.000000)" sketch:type="MSShapeGroup">
                <path d="M253.641935,253.538471 C295.636657,257.948332 331.728296,254.327816 362.01033,239.84754 C397.21348,224.826397 423.682671,196.125701 427.277029,160.093402 C431.951833,113.216184 388.620413,74.0864524 315.80805,57.3110153 C318.967227,63.3038539 321.007337,69.7400444 321.72953,76.6065056 C327.611237,132.505164 259.013723,194.348787 173.552191,203.525941 C162.832741,204.599834 152.499065,205.165907 142.549594,205.176945 C169.749469,230.059337 209.434938,248.896304 253.641935,253.538471 Z" id="Oval-1-copy-3" fill="#5DD9F2"></path>
                <path d="M65.1916516,189.905817 C29.977678,174.779739 3.52108587,146.198797 -0.0490866323,110.396409 C-5.443991,56.2918563 53.3909467,12.5789091 147.769786,1.69573675 C212.318856,-5.99863903 293.064125,14.1667415 315.808037,57.3109956 C304.400374,54.6827702 292.269057,52.6032383 279.485338,51.1285922 C205.97126,42.361527 111.433106,69.8776827 105.497189,126.30337 C102.642172,153.442636 117.153715,181.944845 142.549594,205.176945 C113.501806,205.209171 87.7288463,200.51046 65.1916516,189.905817 Z" id="Oval-1-copy-2" fill-opacity="0.9" fill="#FF5533"></path>
                <path d="M173.552191,203.525941 C259.013723,194.348787 327.611237,132.505164 321.72953,76.6065056 C321.007336,69.7400372 318.967223,63.3038403 315.808037,57.3109956 C304.400374,54.6827702 292.269057,52.6032383 279.485338,51.1285922 C205.97126,42.361527 111.433106,69.8776827 105.497189,126.30337 C102.642172,153.442636 117.153715,181.944845 142.549594,205.176945 C152.499064,205.165907 162.832741,204.599834 173.552191,203.525941 Z" id="Oval-1-copy-4" fill-opacity="0.9" fill="#853261"></path>
            </g>
            <path d="M690.496,787.758 C688.282656,779.78996 686.014012,772.154037 683.69,764.85 C681.365988,757.545963 679.125011,750.657032 676.967,744.183 C674.808989,737.708968 672.73401,731.816027 670.742,726.504 C668.74999,721.191973 666.924008,716.54402 665.264,712.56 C664.821331,718.868032 664.461668,725.812295 664.185,733.393 C663.908332,740.973705 663.631668,748.74796 663.355,756.716 C663.078332,764.68404 662.857001,772.679627 662.691,780.703 C662.524999,788.726373 662.386667,796.389963 662.276,803.694 L648,803.694 C648.332002,793.73395 648.663998,783.691051 648.996,773.565 C649.328002,763.438949 649.742998,753.479049 650.241,743.685 C650.739002,733.890951 651.29233,724.346046 651.901,715.05 C652.50967,705.753954 653.201329,696.956041 653.976,688.656 L668.75,688.656 C670.74201,693.41469 673.010654,699.0863 675.556,705.671 C678.101346,712.2557 680.67432,719.144631 683.275,726.338 C685.87568,733.531369 688.393321,740.724631 690.828,747.918 C693.262679,755.111369 695.365324,761.69597 697.136,767.672 C698.906676,761.69597 700.953988,755.111369 703.278,747.918 C705.602012,740.724631 708.036654,733.531369 710.582,726.338 C713.127346,719.144631 715.644988,712.2557 718.135,705.671 C720.625012,699.0863 722.86599,693.41469 724.858,688.656 L739.632,688.656 C740.406671,696.956041 741.09833,705.753954 741.707,715.05 C742.31567,724.346046 742.868998,733.890951 743.367,743.685 C743.865002,753.479049 744.279998,763.438949 744.612,773.565 C744.944002,783.691051 745.275998,793.73395 745.608,803.694 L731.332,803.694 C731.110666,796.389963 730.917001,788.698707 730.751,780.62 C730.584999,772.541293 730.363668,764.435041 730.087,756.301 C729.810332,748.166959 729.506002,740.254372 729.174,732.563 C728.841998,724.871628 728.454669,717.816699 728.012,711.398 L724.277,721.773 C722.782993,725.923021 721.233675,730.432642 719.629,735.302 C718.024325,740.171358 716.364342,745.178974 714.649,750.325 C712.933658,755.471026 711.329007,760.42331 709.835,765.182 C708.340993,769.94069 707.013006,774.284314 705.851,778.213 C704.688994,782.141686 703.776003,785.323321 703.112,787.758 L690.496,787.758 Z M858.196,746.258 C858.196,755.222045 857.393675,763.38363 855.789,770.743 C854.184325,778.10237 851.69435,784.410307 848.319,789.667 C844.94365,794.923693 840.683026,798.990652 835.537,801.868 C830.390974,804.745348 824.332035,806.184 817.36,806.184 C810.387965,806.184 804.329026,804.745348 799.183,801.868 C794.036974,798.990652 789.77635,794.923693 786.401,789.667 C783.02565,784.410307 780.508008,778.10237 778.848,770.743 C777.187992,763.38363 776.358,755.222045 776.358,746.258 C776.358,737.293955 777.187992,729.104704 778.848,721.69 C780.508008,714.275296 783.02565,707.939693 786.401,702.683 C789.77635,697.426307 794.036974,693.331681 799.183,690.399 C804.329026,687.466319 810.387965,686 817.36,686 C824.332035,686 830.390974,687.466319 835.537,690.399 C840.683026,693.331681 844.94365,697.426307 848.319,702.683 C851.69435,707.939693 854.184325,714.275296 855.789,721.69 C857.393675,729.104704 858.196,737.293955 858.196,746.258 Z M842.26,746.258 C842.26,739.285965 841.817338,732.922695 840.932,727.168 C840.046662,721.413305 838.60801,716.461021 836.616,712.311 C834.62399,708.160979 832.051016,704.924012 828.897,702.6 C825.742984,700.275988 821.897356,699.114 817.36,699.114 C812.822644,699.114 808.977016,700.275988 805.823,702.6 C802.668984,704.924012 800.09601,708.160979 798.104,712.311 C796.11199,716.461021 794.645671,721.413305 793.705,727.168 C792.764329,732.922695 792.294,739.285965 792.294,746.258 C792.294,753.230035 792.764329,759.593305 793.705,765.348 C794.645671,771.102695 796.11199,776.027313 798.104,780.122 C800.09601,784.216687 802.668984,787.398322 805.823,789.667 C808.977016,791.935678 812.822644,793.07 817.36,793.07 C821.897356,793.07 825.742984,791.935678 828.897,789.667 C832.051016,787.398322 834.62399,784.216687 836.616,780.122 C838.60801,776.027313 840.046662,771.102695 840.932,765.348 C841.817338,759.593305 842.26,753.230035 842.26,746.258 Z M891.436,690.316 C899.182705,688.434657 906.652631,687.494 913.846,687.494 C919.600695,687.494 924.801977,688.157993 929.45,689.486 C934.098023,690.814007 938.081983,692.916652 941.402,695.794 C944.722017,698.671348 947.294991,702.378644 949.121,706.916 C950.947009,711.453356 951.86,716.931301 951.86,723.35 C951.86,731.31804 950.338349,737.764309 947.295,742.689 C944.251651,747.613691 940.129359,751.348654 934.928,753.894 C936.256007,756.107344 937.943656,759.122981 939.991,762.941 C942.038344,766.759019 944.140989,770.96431 946.299,775.557 C948.457011,780.14969 950.559656,784.880642 952.607,789.75 C954.654344,794.619358 956.397326,799.267311 957.836,803.694 L942.896,803.694 C941.678661,800.373983 940.157009,796.611354 938.331,792.406 C936.504991,788.200646 934.59601,784.023021 932.604,779.873 C930.61199,775.722979 928.62001,771.739019 926.628,767.921 C924.63599,764.102981 922.865341,760.866013 921.316,758.21 C919.545324,758.431334 917.719343,758.597333 915.838,758.708 C913.956657,758.818667 912.075343,758.874 910.194,758.874 L906.044,758.874 L906.044,803.694 L891.436,803.694 L891.436,690.316 Z M906.044,746.59 L912.352,746.59 C919.988038,746.59 925.853313,744.847017 929.948,741.361 C934.042687,737.874983 936.09,731.871376 936.09,723.35 C936.09,719.033978 935.564339,715.409681 934.513,712.477 C933.461661,709.544319 931.967676,707.220342 930.031,705.505 C928.094324,703.789658 925.770347,702.544671 923.059,701.77 C920.347653,700.995329 917.332017,700.608 914.012,700.608 C911.134652,700.608 908.478679,700.773998 906.044,701.106 L906.044,746.59 Z M986.76,690.316 C994.506705,688.434657 1002.0873,687.494 1009.502,687.494 C1015.2567,687.494 1020.48564,688.18566 1025.189,689.569 C1029.89236,690.95234 1033.93165,693.110319 1037.307,696.043 C1040.68235,698.975681 1043.28299,702.765977 1045.109,707.414 C1046.93501,712.062023 1047.848,717.650634 1047.848,724.18 C1047.848,730.820033 1046.90734,736.491643 1045.026,741.195 C1043.14466,745.898357 1040.48868,749.716319 1037.058,752.649 C1033.62732,755.581681 1029.50502,757.711993 1024.691,759.04 C1019.87698,760.368007 1014.53736,761.032 1008.672,761.032 L1001.7,761.032 L1001.7,803.694 L986.76,803.694 L986.76,690.316 Z M1001.7,747.918 L1007.676,747.918 C1011.43869,747.918 1014.84165,747.503004 1017.885,746.673 C1020.92835,745.842996 1023.50132,744.487343 1025.604,742.606 C1027.70668,740.724657 1029.31133,738.290015 1030.418,735.302 C1031.52467,732.313985 1032.078,728.606689 1032.078,724.18 C1032.078,719.753311 1031.52467,716.018349 1030.418,712.975 C1029.31133,709.931651 1027.78968,707.497009 1025.853,705.671 C1023.91632,703.844991 1021.56468,702.544671 1018.798,701.77 C1016.03132,700.995329 1012.98802,700.608 1009.668,700.608 C1006.79065,700.608 1004.13468,700.773998 1001.7,701.106 L1001.7,747.918 Z M1130.058,688.656 L1144.998,688.656 L1144.998,803.694 L1130.058,803.694 L1130.058,750.242 L1092.21,750.242 L1092.21,803.694 L1077.27,803.694 L1077.27,688.656 L1092.21,688.656 L1092.21,737.294 L1130.058,737.294 L1130.058,688.656 Z M1182.886,803.694 L1182.886,688.656 L1234.512,688.656 L1234.512,701.438 L1197.826,701.438 L1197.826,737.128 L1231.026,737.128 L1231.026,749.578 L1197.826,749.578 L1197.826,790.912 L1237.168,790.912 L1237.168,803.694 L1182.886,803.694 Z M1299.79,806.184 C1289.05528,806.184 1281.00436,803.140697 1275.637,797.054 C1270.26964,790.967303 1267.586,781.339399 1267.586,768.17 L1267.586,688.656 L1282.526,688.656 L1282.526,766.842 C1282.526,775.58471 1283.79865,782.141645 1286.344,786.513 C1288.88935,790.884355 1293.48197,793.07 1300.122,793.07 C1306.98337,793.07 1311.65899,790.829022 1314.149,786.347 C1316.63901,781.864978 1317.884,775.363376 1317.884,766.842 L1317.884,688.656 L1332.824,688.656 L1332.824,768.17 C1332.824,781.118065 1330.05736,790.690636 1324.524,796.888 C1318.99064,803.085364 1310.74605,806.184 1299.79,806.184 Z M1383.992,793.402 C1389.96803,793.402 1394.58832,791.742017 1397.853,788.422 C1401.11768,785.101983 1402.75,780.620028 1402.75,774.976 C1402.75,771.987985 1402.252,769.332012 1401.256,767.008 C1400.26,764.683988 1398.95967,762.581343 1397.355,760.7 C1395.75033,758.818657 1393.89668,757.103341 1391.794,755.554 C1389.69132,754.004659 1387.53334,752.455341 1385.32,750.906 C1382.77465,749.135324 1380.11868,747.25401 1377.352,745.262 C1374.58532,743.26999 1372.06768,740.946013 1369.799,738.29 C1367.53032,735.633987 1365.67667,732.535351 1364.238,728.994 C1362.79933,725.452649 1362.08,721.30269 1362.08,716.544 C1362.08,711.895977 1362.88233,707.690685 1364.487,703.928 C1366.09167,700.165315 1368.30499,696.956013 1371.127,694.3 C1373.94901,691.643987 1377.32431,689.596674 1381.253,688.158 C1385.18169,686.719326 1389.41464,686 1393.952,686 C1398.37869,686 1402.47331,686.553328 1406.236,687.66 C1409.99869,688.766672 1413.15265,690.094659 1415.698,691.644 L1411.05,703.43 C1408.72599,701.880659 1406.20835,700.691004 1403.497,699.861 C1400.78565,699.030996 1397.93601,698.616 1394.948,698.616 C1389.52531,698.616 1385.18168,700.082319 1381.917,703.015 C1378.65232,705.947681 1377.02,710.235972 1377.02,715.88 C1377.02,718.978682 1377.54566,721.689988 1378.597,724.014 C1379.64834,726.338012 1381.03166,728.440657 1382.747,730.322 C1384.46234,732.203343 1386.45432,733.918659 1388.723,735.468 C1390.99168,737.017341 1393.39865,738.621992 1395.944,740.282 C1398.48935,741.942008 1401.08999,743.76799 1403.746,745.76 C1406.40201,747.75201 1408.80899,750.04832 1410.967,752.649 C1413.12501,755.24968 1414.89566,758.292983 1416.279,761.779 C1417.66234,765.265017 1418.354,769.38731 1418.354,774.146 C1418.354,778.462022 1417.69001,782.556647 1416.362,786.43 C1415.03399,790.303353 1412.95901,793.706319 1410.137,796.639 C1407.31499,799.571681 1403.77369,801.895658 1399.513,803.611 C1395.25231,805.326342 1390.2447,806.184 1384.49,806.184 C1379.17797,806.184 1374.53002,805.575339 1370.546,804.358 C1366.56198,803.140661 1363.02068,801.53601 1359.922,799.544 L1364.57,787.592 C1367.44735,789.362676 1370.40765,790.773661 1373.451,791.825 C1376.49435,792.876339 1380.00798,793.402 1383.992,793.402 Z" id="MORPHEUS" fill="#434343" sketch:type="MSShapeGroup"></path>
        </g>
    </g>
</svg>