<?xml version="1.0" encoding="UTF-8" standalone="no"?>
<svg width="16px" height="16px" viewBox="0 0 16 16" version="1.1" xmlns="http://www.w3.org/2000/svg" xmlns:xlink="http://www.w3.org/1999/xlink" xmlns:sketch="http://www.bohemiancoding.com/sketch/ns">
    <title>morpheus 16x16</title>
    <description>Created with Sketch (http://www.bohemiancoding.com/sketch)</description>
    <defs></defs>
    <g id="Page-1" stroke="none" stroke-width="1" fill="none" fill-rule="evenodd" sketch:type="MSPage">
        <g id="Pills-copy" sketch:type="MSLayerGroup" transform="translate(0.000000, 3.000000)">
            <path d="M9.48194149,9.94268514 C11.0518377,10.1156209 12.4010578,9.97363985 13.5330964,9.40578587 C14.8491021,8.81672146 15.8386045,7.69120395 15.9729731,6.27817263 C16.1477321,4.43985034 14.5278659,2.90535108 11.8059084,2.2474908 C11.9240085,2.48250407 12.0002743,2.7349037 12.0272721,3.00417669 C12.2471491,5.19628095 9.682756,7.62152104 6.48793237,7.98140945 C6.08720527,8.02352289 5.70089964,8.04572186 5.32895679,8.04615472 C6.34577453,9.02193479 7.82934349,9.76063936 9.48194149,9.94268514 Z" id="Oval-1-copy-3" fill="#5DD9F2" sketch:type="MSShapeGroup"></path>
            <path d="M2.43707109,7.44728694 C1.12066086,6.85410741 0.131629378,5.73328617 -0.00183501429,4.32927094 C-0.203513682,2.20752378 1.99592324,0.493290554 5.52410415,0.0664994805 C7.93715348,-0.235240746 10.9556682,0.55555849 11.8059079,2.24749002 C11.3794532,2.14442236 10.9259461,2.06287209 10.44805,2.00504283 C7.69986018,1.66123635 4.16572359,2.74030128 3.94382015,4.95307334 C3.83709053,6.01735828 4.37957812,7.13509196 5.32895679,8.04615472 C4.24305815,8.04741846 3.27958304,7.8631553 2.43707109,7.44728694 Z" id="Oval-1-copy-2" fill-opacity="0.9" fill="#FF5533" sketch:type="MSShapeGroup"></path>
            <path d="M6.48793237,7.98140945 C9.682756,7.62152104 12.2471491,5.19628095 12.0272721,3.00417669 C12.0002743,2.73490342 11.9240083,2.48250354 11.8059079,2.24749002 C11.3794532,2.14442236 10.9259461,2.06287209 10.44805,2.00504283 C7.69986018,1.66123635 4.16572359,2.74030128 3.94382015,4.95307334 C3.83709053,6.01735828 4.37957812,7.13509196 5.32895679,8.04615472 C5.7008996,8.04572186 6.08720525,8.02352289 6.48793237,7.98140945 Z" id="Oval-1-copy-4" fill-opacity="0.9" fill="#853261" sketch:type="MSShapeGroup"></path>
        </g>
    </g>
</svg>