<?xml version="1.0" encoding="UTF-8" standalone="no"?>
<svg width="640px" height="640px" viewBox="0 0 640 640" version="1.1" xmlns="http://www.w3.org/2000/svg" xmlns:xlink="http://www.w3.org/1999/xlink" xmlns:sketch="http://www.bohemiancoding.com/sketch/ns">
    <title>morpheus logo square</title>
    <description>Created with Sketch (http://www.bohemiancoding.com/sketch)</description>
    <defs></defs>
    <g id="Page-1" stroke="none" stroke-width="1" fill="none" fill-rule="evenodd" sketch:type="MSPage">
        <g id="Pills" sketch:type="MSLayerGroup" transform="translate(46.000000, 156.000000)">
            <path d="M322.978632,323.137267 C376.45322,328.757678 422.411031,324.143295 460.971097,305.688041 C505.797539,286.543447 539.502466,249.964129 544.079395,204.04061 C550.032123,144.295136 494.855433,94.42391 402.138755,73.0434509 C406.161539,80.6813824 408.759343,88.8843704 409.678957,97.6357424 C417.168515,168.879131 329.818876,247.699434 220.995196,259.395807 C207.34543,260.764494 194.186894,261.48596 181.517591,261.500028 C216.152945,293.212881 266.687013,317.220779 322.978632,323.137267 Z" id="Oval-1-copy-3" fill="#5DD9F2" sketch:type="MSShapeGroup"></path>
            <path d="M83.012734,242.036825 C38.1725106,222.758491 4.4836257,186.3318 -0.0625051743,140.701306 C-6.93218481,71.7445228 67.9861354,16.031943 188.164798,2.16123312 C270.35929,-7.64532425 373.177448,18.0556509 402.138738,73.0434257 C387.612626,69.6937268 372.165037,67.0433429 355.886704,65.163892 C262.276487,53.9901814 141.89496,89.0597917 134.336374,160.974884 C130.700896,195.564144 149.17938,231.890489 181.517591,261.500028 C144.529168,261.5411 111.710797,255.552547 83.012734,242.036825 Z" id="Oval-1-copy-2" fill-opacity="0.9" fill="#FF5533" sketch:type="MSShapeGroup"></path>
            <path d="M220.995196,259.395807 C329.818876,247.699434 417.168515,168.879131 409.678957,97.6357424 C408.759342,88.8843611 406.161534,80.6813651 402.138738,73.0434257 C387.612626,69.6937268 372.165037,67.0433429 355.886704,65.163892 C262.276487,53.9901814 141.89496,89.0597917 134.336374,160.974884 C130.700896,195.564144 149.17938,231.890489 181.517591,261.500028 C194.186893,261.485961 207.345429,260.764494 220.995196,259.395807 Z" id="Oval-1-copy-4" fill-opacity="0.9" fill="#853261" sketch:type="MSShapeGroup"></path>
        </g>
    </g>
</svg>